# xmcd
#
# Track frame offsets:
#	150
#	18413
#	33947
#	55051
#	74130
#	91416
#	103002
#	116345
#	137389
#	157460
#	168217
#	183234
#	197004
#	216284
#	236308
#
# Disc length: 3418 seconds
# Revision: 0
# Processed by: cddbd v1.5.2PL0 Copyright (c) Steve Scherf et al.
# Submitted via: dBpowerAMP V12.0
#
DISCID=cb0d580f
DTITLE=Various Artist - Uncut: Sounds Of The New West Vol.5
DYEAR=2020
DGENRE=Alt. Country
TTITLE0=Jeremy Ivey - Diamonds Back To Coal
TTITLE1=Erin Rae - Love Like Before
TTITLE2=James Elkington - Ever-Roving Eye
TTITLE3=Courtney Marie Andrews - Downtown Train
TTITLE4=Drive-By Truckers - Armageddon's Back In Town
TTITLE5=Hayes Carll - I Will Stay
TTITLE6=Kelsey Waldon - Anyhow
TTITLE7=Saariselka - Void
TTITLE8=Frankie Lee - Bad Love
TTITLE9=Ohtis - Pervert Blood
TTITLE10=Tyler Childers - Country Squire
TTITLE11=Carson McHone - Don't You Think I Feel It Too
TTITLE12=Bonny Light Horseman - The Roving
TTITLE13=Ian Noe - Letter To Madeline
TTITLE14=Gill Landry - Trouble Town
EXTD=
EXTT0=
EXTT1=
EXTT2=
EXTT3=
EXTT4=
EXTT5=
EXTT6=
EXTT7=
EXTT8=
EXTT9=
EXTT10=
EXTT11=
EXTT12=
EXTT13=
EXTT14=
PLAYORDER=
